<svg width="41" height="31" viewBox="0 0 41 31" fill="none" xmlns="http://www.w3.org/2000/svg">
<path d="M12.8872 30.2125C28.3633 30.2125 36.8306 18.5908 36.8306 8.51209C36.8306 8.18026 36.8243 7.85416 36.8049 7.52806C38.4507 6.44834 39.8713 5.11162 41 3.58049C39.4653 4.19841 37.8367 4.60316 36.1689 4.78111C37.9256 3.82657 39.2405 2.32665 39.8693 0.559886C38.2169 1.44814 36.4092 2.07409 34.5242 2.41072C33.3698 1.29487 31.8719 0.519314 30.225 0.184733C28.5782 -0.149848 26.8583 -0.028001 25.2888 0.534457C23.7193 1.09691 22.3726 2.074 21.4235 3.33888C20.4745 4.60376 19.9669 6.09801 19.9666 7.62765C19.967 8.21349 20.0404 8.79741 20.1854 9.36832C16.839 9.21655 13.5653 8.42842 10.5769 7.05512C7.58848 5.68183 4.95228 3.7541 2.83956 1.39717C1.76483 3.07615 1.43633 5.06318 1.92089 6.95391C2.40546 8.84465 3.66668 10.497 5.44792 11.5748C4.1122 11.5364 2.806 11.2089 1.63834 10.6198V10.7188C1.6385 12.4798 2.31103 14.1865 3.54176 15.5492C4.77249 16.9119 6.48561 17.8467 8.39031 18.1948C7.66791 18.373 6.92253 18.4631 6.17385 18.4628C5.64331 18.4636 5.11399 18.4168 4.59362 18.3231C5.13206 19.8385 6.17926 21.1637 7.58898 22.1136C8.9987 23.0635 10.7005 23.5907 12.4569 23.6215C9.47562 25.7421 5.79423 26.8926 2.00447 26.888C1.33462 26.8886 0.665321 26.8536 0 26.7831C3.84128 29.028 8.31655 30.2189 12.8872 30.2125Z" fill="white"/>
</svg>
