<svg width="35" height="30" viewBox="0 0 35 30" fill="none" xmlns="http://www.w3.org/2000/svg">
<path d="M4.1969 0C1.65704 0 0 1.51181 0 3.4997C0 5.44337 1.60827 6.99456 4.09854 6.99456H4.14731C6.73574 6.99456 8.34421 5.43854 8.34421 3.4997C8.30159 1.51181 6.73656 0 4.1969 0Z" fill="white"/>
<path d="M0.44084 9.75756H7.86513V30.0001H0.44084V9.75756Z" fill="white"/>
<path d="M26.0837 9.28016C22.0815 9.28016 19.3952 12.6916 19.3952 12.6916V9.7568H11.9701V29.9988H19.3893V18.6947C19.3893 18.091 19.4381 17.4873 19.633 17.0504C20.1691 15.843 21.3931 14.5913 23.4403 14.5913C26.1266 14.5913 27.1989 16.4467 27.1989 19.1659V29.994H34.618V18.3902C34.6299 12.1762 30.9634 9.28016 26.0837 9.28016Z" fill="white"/>
</svg>
