<svg width="83" height="83" viewBox="0 0 83 83" fill="none" xmlns="http://www.w3.org/2000/svg">
<path d="M41.4993 17.29V46.8587C38.2485 44.9912 34.2368 44.265 29.983 45.7521C25.3489 47.4121 21.7868 51.5275 20.9568 56.3692C20.5731 58.5477 20.7165 60.7865 21.375 62.8983C22.0336 65.01 23.1881 66.9335 24.7421 68.5078C26.2961 70.0821 28.2044 71.2615 30.3074 71.9474C32.4105 72.6333 34.6472 72.8058 36.8306 72.4504C43.6089 71.3783 48.416 65.1533 48.416 58.2712V24.2066H55.3326C59.1368 24.2066 62.2493 21.0941 62.2493 17.29C62.2493 13.4858 59.1368 10.3733 55.3326 10.3733H48.416C44.6118 10.3733 41.4993 13.4858 41.4993 17.29Z" fill="white"/>
</svg>
