<svg width="34" height="31" viewBox="0 0 34 31" fill="none" xmlns="http://www.w3.org/2000/svg">
<path d="M32.1348 6.83551e-06H1.87588C1.6295 -1.71177e-05 1.38552 0.0439544 1.15789 0.129409C0.930259 0.214864 0.723435 0.340127 0.549233 0.498044C0.37503 0.65596 0.236863 0.843436 0.142624 1.04976C0.0483849 1.25608 -7.91536e-05 1.47721 9.70386e-08 1.70052L9.70386e-08 29.1243C-2.63321e-05 29.3476 0.0484903 29.5687 0.142778 29.775C0.237066 29.9814 0.375277 30.1688 0.549517 30.3267C0.723757 30.4846 0.930611 30.6098 1.15826 30.6952C1.38591 30.7806 1.6299 30.8245 1.87629 30.8245H18.164V18.9045H13.7478V14.2371H18.1638V10.8031C18.1638 6.81991 20.8475 4.65263 24.764 4.65263C26.0864 4.6474 27.4081 4.70825 28.7231 4.83489V8.99686H26.0182C23.8865 8.99686 23.4727 9.91674 23.4727 11.2653V14.2362H28.569L27.9054 18.9032H23.4727V30.8232H32.1241C32.3705 30.8232 32.6145 30.7792 32.8421 30.6938C33.0697 30.6083 33.2766 30.4831 33.4508 30.3252C33.625 30.1672 33.7631 29.9798 33.8574 29.7734C33.9516 29.5671 34.0001 29.346 34 29.1227V1.70015C34.0021 1.47717 33.9554 1.25602 33.8625 1.04952C33.7696 0.843024 33.6325 0.655273 33.459 0.497145C33.2855 0.339017 33.0792 0.213656 32.8519 0.12832C32.6245 0.0429848 32.3808 -0.000628162 32.1348 6.83551e-06Z" fill="white"/>
</svg>
