<svg width="33" height="30" viewBox="0 0 33 30" fill="none" xmlns="http://www.w3.org/2000/svg">
<path d="M32.9152 8.79267C32.8885 7.55202 32.6286 6.32458 32.1465 5.16316C31.7309 4.16422 31.0804 3.25928 30.2399 2.51124C29.4167 1.75175 28.4203 1.16438 27.3205 0.790191C26.0396 0.354189 24.6863 0.118674 23.3183 0.0937064C21.5474 0.0175007 20.9855 0 16.5027 0C12.0199 0 11.4582 0.0175007 9.70153 0.0886112C8.33269 0.112491 6.97838 0.347805 5.69685 0.784431C4.59422 1.16027 3.59557 1.75001 2.77082 2.51235C1.93294 3.25824 1.28487 4.16095 0.871869 5.1574C0.390555 6.31893 0.130692 7.54619 0.103392 8.78669C0.0193097 10.3897 0 10.8941 0 14.9567C0 19.0193 0.0193097 19.5286 0.0977706 21.1209C0.124432 22.3616 0.3844 23.589 0.866492 24.7504C1.28445 25.7483 1.93472 26.6528 2.77302 27.4024C3.59629 28.1619 4.59265 28.7492 5.69245 29.1234C6.97411 29.5597 8.32831 29.7953 9.69713 29.8201C11.4541 29.8903 12.016 29.9087 16.4985 29.9087C20.9811 29.9087 21.543 29.8912 23.2999 29.8201C24.6688 29.796 26.0232 29.5603 27.3046 29.1234C28.4014 28.7382 29.3973 28.1498 30.2288 27.3958C31.0603 26.6418 31.709 25.7389 32.1335 24.7447C32.6149 23.5831 32.8749 22.3558 32.9022 21.1152C32.9797 19.5171 33 19.0135 33 14.9509C33 10.8883 32.9927 10.3897 32.9152 8.79267ZM29.9439 21.0097C29.8728 22.4731 29.6018 23.2576 29.3757 23.7846C29.1003 24.4293 28.6794 25.0149 28.14 25.5038C27.6006 25.9927 26.9545 26.3741 26.2431 26.6237C25.2628 26.9538 24.2271 27.128 23.1814 27.1387C21.4374 27.209 20.9207 27.2274 16.5157 27.2274C12.1106 27.2274 11.5809 27.2099 9.8499 27.1387C8.23522 27.0743 7.3697 26.8286 6.78821 26.6237C6.07167 26.3864 5.42435 26.004 4.89562 25.5056C4.34982 25.0234 3.92854 24.4376 3.662 23.7903C3.29781 22.9019 3.10556 21.9632 3.09371 21.0155C3.01622 19.4349 2.99593 18.9666 2.99593 14.9742C2.99593 10.9818 3.01524 10.5018 3.09371 8.9329C3.16483 7.46949 3.4359 6.68505 3.662 6.15804C3.91891 5.50476 4.34155 4.91532 4.89586 4.43721C5.42799 3.94254 6.07431 3.56073 6.78846 3.31916C7.76879 2.98907 8.80464 2.81482 9.85039 2.8041C11.5944 2.73388 12.1111 2.71549 16.5161 2.71549C20.9275 2.71549 21.4509 2.73299 23.1819 2.8041C24.7966 2.86857 25.6621 3.11424 26.2436 3.31916C26.9601 3.55641 27.6074 3.93881 28.1362 4.43721C28.6835 4.9206 29.1049 5.50856 29.3698 6.15826C29.734 7.04669 29.9262 7.98542 29.9381 8.93312C30.0156 10.5137 30.0359 10.982 30.0359 14.9744C30.0359 18.9668 30.0214 19.4291 29.9439 21.0097Z" fill="white"/>
<path d="M16.502 7.27567C14.8253 7.27567 13.1863 7.72629 11.7922 8.57053C10.3981 9.41478 9.31152 10.6147 8.66988 12.0187C8.02825 13.4226 7.86036 14.9675 8.18747 16.4579C8.51457 17.9483 9.32197 19.3173 10.5076 20.3918C11.6932 21.4663 13.2037 22.1981 14.8482 22.4946C16.4926 22.791 18.1972 22.6389 19.7462 22.0573C21.2953 21.4758 22.6192 20.491 23.5508 19.2275C24.4823 17.964 24.9795 16.4785 24.9795 14.9589C24.9784 12.9215 24.0849 10.9678 22.4953 9.52715C20.9057 8.08647 18.75 7.27667 16.502 7.27567ZM16.502 19.9435C15.4136 19.9435 14.3497 19.651 13.4447 19.103C12.5397 18.555 11.8344 17.776 11.4179 16.8647C11.0014 15.9533 10.8924 14.9505 11.1047 13.983C11.3171 13.0156 11.8412 12.1269 12.6108 11.4294C13.3804 10.7319 14.361 10.2568 15.4284 10.0644C16.4959 9.87196 17.6024 9.97072 18.6079 10.3482C19.6135 10.7257 20.4729 11.365 21.0776 12.1852C21.6823 13.0053 22.005 13.9696 22.005 14.9561C22.005 15.611 21.8627 16.2596 21.5861 16.8647C21.3096 17.4698 20.9042 18.0196 20.3932 18.4827C19.8822 18.9459 19.2756 19.3132 18.6079 19.5639C17.9403 19.8145 17.2247 19.9435 16.502 19.9435Z" fill="white"/>
<path d="M27.3039 6.97297C27.3039 7.32716 27.188 7.67339 26.9708 7.96789C26.7536 8.26239 26.4449 8.49193 26.0837 8.62747C25.7225 8.76301 25.3251 8.79848 24.9417 8.72938C24.5582 8.66028 24.206 8.48972 23.9296 8.23927C23.6532 7.98882 23.4649 7.66972 23.3886 7.32234C23.3124 6.97495 23.3515 6.61488 23.5011 6.28765C23.6507 5.96042 23.9041 5.68073 24.2291 5.48395C24.5542 5.28718 24.9363 5.18214 25.3273 5.18214C25.8515 5.18214 26.3543 5.37082 26.725 5.70666C27.0957 6.04251 27.3039 6.49801 27.3039 6.97297Z" fill="white"/>
</svg>
